<mxfile host="app.diagrams.net" agent="Mozilla/5.0 (Macintosh; Intel Mac OS X 10_15_7) AppleWebKit/537.36 (KHTML, like Gecko) Chrome/135.0.0.0 Safari/537.36" version="27.0.6">
  <diagram name="第 1 页" id="5woYyzTHQIjWlV6TX406">
    <mxGraphModel dx="1454" dy="936" grid="1" gridSize="10" guides="1" tooltips="1" connect="1" arrows="1" fold="1" page="0" pageScale="1" pageWidth="827" pageHeight="1169" math="0" shadow="0">
      <root>
        <mxCell id="0" />
        <mxCell id="1" parent="0" />
        <mxCell id="ZyyuY-AvTD6qy36K2RAP-1" style="edgeStyle=orthogonalEdgeStyle;rounded=0;orthogonalLoop=1;jettySize=auto;html=1;entryX=0.5;entryY=1;entryDx=0;entryDy=0;" edge="1" parent="1" source="ZyyuY-AvTD6qy36K2RAP-4" target="ZyyuY-AvTD6qy36K2RAP-7">
          <mxGeometry relative="1" as="geometry" />
        </mxCell>
        <mxCell id="ZyyuY-AvTD6qy36K2RAP-2" style="edgeStyle=orthogonalEdgeStyle;rounded=0;orthogonalLoop=1;jettySize=auto;html=1;entryX=0.5;entryY=1;entryDx=0;entryDy=0;" edge="1" parent="1" source="ZyyuY-AvTD6qy36K2RAP-4" target="ZyyuY-AvTD6qy36K2RAP-8">
          <mxGeometry relative="1" as="geometry" />
        </mxCell>
        <mxCell id="ZyyuY-AvTD6qy36K2RAP-3" style="edgeStyle=orthogonalEdgeStyle;rounded=0;orthogonalLoop=1;jettySize=auto;html=1;entryX=0.5;entryY=1;entryDx=0;entryDy=0;" edge="1" parent="1" source="ZyyuY-AvTD6qy36K2RAP-4" target="ZyyuY-AvTD6qy36K2RAP-9">
          <mxGeometry relative="1" as="geometry" />
        </mxCell>
        <mxCell id="ZyyuY-AvTD6qy36K2RAP-4" value="" style="rounded=0;whiteSpace=wrap;html=1;fillColor=#ffe6cc;strokeColor=#d79b00;" vertex="1" parent="1">
          <mxGeometry x="360" y="740" width="190" height="120" as="geometry" />
        </mxCell>
        <mxCell id="ZyyuY-AvTD6qy36K2RAP-5" value="replication controller" style="text;html=1;align=center;verticalAlign=middle;whiteSpace=wrap;rounded=0;" vertex="1" parent="1">
          <mxGeometry x="390" y="870" width="120" height="30" as="geometry" />
        </mxCell>
        <mxCell id="ZyyuY-AvTD6qy36K2RAP-6" value="&lt;font&gt;&lt;span style=&quot;box-sizing: border-box; text-wrap-style: initial; word-break: break-word; font-family: Consolas, Monaco, &amp;quot;Andale Mono&amp;quot;, &amp;quot;Ubuntu Mono&amp;quot;, monospace; white-space-collapse: preserve;&quot;&gt;&lt;span style=&quot;box-sizing: border-box; text-wrap-style: initial; word-break: break-word; color: rgb(0, 119, 170);&quot; class=&quot;token key&quot;&gt;template&lt;/span&gt;&lt;span style=&quot;box-sizing: border-box; text-wrap-style: initial; word-break: break-word; color: rgb(153, 153, 153);&quot; class=&quot;token&quot;&gt;:&lt;/span&gt;&lt;span style=&quot;box-sizing: border-box; text-wrap-style: initial; word-break: break-word;&quot;&gt;                 &lt;/span&gt;&lt;span style=&quot;box-sizing: border-box; text-wrap-style: initial; word-break: break-word;&quot;&gt;&lt;br&gt;&lt;/span&gt;&lt;/span&gt;&lt;span style=&quot;box-sizing: border-box; text-wrap-style: initial; word-break: break-word; font-family: Consolas, Monaco, &amp;quot;Andale Mono&amp;quot;, &amp;quot;Ubuntu Mono&amp;quot;, monospace; white-space-collapse: preserve;&quot;&gt;&lt;span style=&quot;box-sizing: border-box; text-wrap-style: initial; word-break: break-word;&quot;&gt;    &lt;/span&gt;&lt;span style=&quot;box-sizing: border-box; text-wrap-style: initial; word-break: break-word; color: rgb(0, 119, 170);&quot; class=&quot;token key&quot;&gt;metadata&lt;/span&gt;&lt;span style=&quot;box-sizing: border-box; text-wrap-style: initial; word-break: break-word; color: rgb(153, 153, 153);&quot; class=&quot;token&quot;&gt;:&lt;/span&gt;&lt;span style=&quot;box-sizing: border-box; text-wrap-style: initial; word-break: break-word;&quot;&gt;&lt;br&gt;&lt;/span&gt;&lt;/span&gt;&lt;span style=&quot;box-sizing: border-box; text-wrap-style: initial; word-break: break-word; font-family: Consolas, Monaco, &amp;quot;Andale Mono&amp;quot;, &amp;quot;Ubuntu Mono&amp;quot;, monospace; white-space-collapse: preserve;&quot;&gt;&lt;span style=&quot;box-sizing: border-box; text-wrap-style: initial; word-break: break-word;&quot;&gt;      &lt;/span&gt;&lt;span style=&quot;box-sizing: border-box; text-wrap-style: initial; word-break: break-word; color: rgb(0, 119, 170);&quot; data-spm-anchor-id=&quot;60902afd.2ef5001f.0.i4.655a3d33Okxrpd&quot; class=&quot;token key&quot;&gt;labels&lt;/span&gt;&lt;span style=&quot;box-sizing: border-box; text-wrap-style: initial; word-break: break-word; color: rgb(153, 153, 153);&quot; class=&quot;token&quot;&gt;:&lt;/span&gt;&lt;span style=&quot;box-sizing: border-box; text-wrap-style: initial; word-break: break-word;&quot;&gt;&lt;br&gt;&lt;/span&gt;&lt;/span&gt;&lt;span style=&quot;box-sizing: border-box; text-wrap-style: initial; word-break: break-word; font-family: Consolas, Monaco, &amp;quot;Andale Mono&amp;quot;, &amp;quot;Ubuntu Mono&amp;quot;, monospace; white-space-collapse: preserve;&quot;&gt;&lt;span style=&quot;box-sizing: border-box; text-wrap-style: initial; word-break: break-word;&quot;&gt;        &lt;/span&gt;&lt;span style=&quot;box-sizing: border-box; text-wrap-style: initial; word-break: break-word; color: rgb(0, 119, 170);&quot; class=&quot;token key&quot;&gt;app&lt;/span&gt;&lt;span style=&quot;box-sizing: border-box; text-wrap-style: initial; word-break: break-word; color: rgb(153, 153, 153);&quot; class=&quot;token&quot;&gt;:&lt;/span&gt;&lt;span style=&quot;box-sizing: border-box; text-wrap-style: initial; word-break: break-word;&quot;&gt; webapp1       &lt;/span&gt;&lt;span style=&quot;box-sizing: border-box; text-wrap-style: initial; word-break: break-word;&quot;&gt;&lt;br&gt;&lt;/span&gt;&lt;/span&gt;&lt;span style=&quot;box-sizing: border-box; text-wrap-style: initial; word-break: break-word; font-family: Consolas, Monaco, &amp;quot;Andale Mono&amp;quot;, &amp;quot;Ubuntu Mono&amp;quot;, monospace; white-space-collapse: preserve;&quot;&gt;&lt;span style=&quot;box-sizing: border-box; text-wrap-style: initial; word-break: break-word;&quot;&gt;    &lt;/span&gt;&lt;span style=&quot;box-sizing: border-box; text-wrap-style: initial; word-break: break-word; color: rgb(0, 119, 170);&quot; class=&quot;token key&quot;&gt;spec&lt;/span&gt;&lt;span style=&quot;box-sizing: border-box; text-wrap-style: initial; word-break: break-word; color: rgb(153, 153, 153);&quot; class=&quot;token&quot;&gt;:&lt;/span&gt;&lt;span style=&quot;box-sizing: border-box; text-wrap-style: initial; word-break: break-word;&quot;&gt;&lt;br&gt;&lt;/span&gt;&lt;/span&gt;&lt;span style=&quot;box-sizing: border-box; text-wrap-style: initial; word-break: break-word; font-family: Consolas, Monaco, &amp;quot;Andale Mono&amp;quot;, &amp;quot;Ubuntu Mono&amp;quot;, monospace; white-space-collapse: preserve;&quot;&gt;&lt;span style=&quot;box-sizing: border-box; text-wrap-style: initial; word-break: break-word;&quot;&gt;      &lt;/span&gt;&lt;span style=&quot;box-sizing: border-box; text-wrap-style: initial; word-break: break-word; color: rgb(0, 119, 170);&quot; class=&quot;token key&quot;&gt;containers&lt;/span&gt;&lt;span style=&quot;box-sizing: border-box; text-wrap-style: initial; word-break: break-word; color: rgb(153, 153, 153);&quot; class=&quot;token&quot;&gt;:&lt;/span&gt;&lt;/span&gt;&lt;span style=&quot;box-sizing: border-box; text-wrap-style: initial; word-break: break-word; font-family: Consolas, Monaco, &amp;quot;Andale Mono&amp;quot;, &amp;quot;Ubuntu Mono&amp;quot;, monospace; white-space-collapse: preserve;&quot;&gt;&lt;span style=&quot;box-sizing: border-box; text-wrap-style: initial; word-break: break-word;&quot;&gt;&lt;br&gt;&lt;div style=&quot;&quot;&gt;&lt;span style=&quot;color: light-dark(rgb(0, 0, 0), rgb(255, 255, 255)); box-sizing: border-box; text-wrap-style: initial; word-break: break-word;&quot;&gt;          &lt;/span&gt;&lt;span style=&quot;box-sizing: border-box; text-wrap-style: initial; word-break: break-word; color: rgb(0, 119, 170);&quot; class=&quot;token key&quot;&gt;image&lt;/span&gt;&lt;span style=&quot;box-sizing: border-box; text-wrap-style: initial; word-break: break-word; color: rgb(153, 153, 153);&quot; class=&quot;token&quot;&gt;:&lt;/span&gt;&lt;span style=&quot;color: light-dark(rgb(0, 0, 0), rgb(255, 255, 255)); box-sizing: border-box; text-wrap-style: initial; word-break: break-word;&quot;&gt; nginx&lt;/span&gt;&lt;span style=&quot;box-sizing: border-box; text-wrap-style: initial; word-break: break-word; color: rgb(153, 153, 153);&quot; class=&quot;token&quot;&gt;:&lt;/span&gt;&lt;span style=&quot;color: light-dark(rgb(0, 0, 0), rgb(255, 255, 255)); box-sizing: border-box; text-wrap-style: initial; word-break: break-word;&quot;&gt;V1&lt;/span&gt;&lt;/div&gt;&lt;/span&gt;&lt;/span&gt;&lt;/font&gt;" style="text;html=1;align=left;verticalAlign=middle;whiteSpace=wrap;rounded=0;" vertex="1" parent="1">
          <mxGeometry x="360" y="745" width="190" height="115" as="geometry" />
        </mxCell>
        <mxCell id="ZyyuY-AvTD6qy36K2RAP-7" value="Pod:nginx:V1" style="rounded=1;whiteSpace=wrap;html=1;fillColor=#dae8fc;strokeColor=#6c8ebf;" vertex="1" parent="1">
          <mxGeometry x="320" y="630" width="80" height="50" as="geometry" />
        </mxCell>
        <mxCell id="ZyyuY-AvTD6qy36K2RAP-8" value="Pod:nginx:V1" style="rounded=1;whiteSpace=wrap;html=1;fillColor=#dae8fc;strokeColor=#6c8ebf;" vertex="1" parent="1">
          <mxGeometry x="415" y="630" width="80" height="50" as="geometry" />
        </mxCell>
        <mxCell id="ZyyuY-AvTD6qy36K2RAP-9" value="Pod:nginx:V1" style="rounded=1;whiteSpace=wrap;html=1;fillColor=#dae8fc;strokeColor=#6c8ebf;" vertex="1" parent="1">
          <mxGeometry x="515" y="630" width="80" height="50" as="geometry" />
        </mxCell>
        <mxCell id="ZyyuY-AvTD6qy36K2RAP-10" style="edgeStyle=orthogonalEdgeStyle;rounded=0;orthogonalLoop=1;jettySize=auto;html=1;entryX=0.5;entryY=0;entryDx=0;entryDy=0;" edge="1" parent="1" source="ZyyuY-AvTD6qy36K2RAP-13" target="ZyyuY-AvTD6qy36K2RAP-7">
          <mxGeometry relative="1" as="geometry" />
        </mxCell>
        <mxCell id="ZyyuY-AvTD6qy36K2RAP-11" style="edgeStyle=orthogonalEdgeStyle;rounded=0;orthogonalLoop=1;jettySize=auto;html=1;entryX=0.5;entryY=0;entryDx=0;entryDy=0;" edge="1" parent="1" source="ZyyuY-AvTD6qy36K2RAP-13" target="ZyyuY-AvTD6qy36K2RAP-8">
          <mxGeometry relative="1" as="geometry" />
        </mxCell>
        <mxCell id="ZyyuY-AvTD6qy36K2RAP-12" style="edgeStyle=orthogonalEdgeStyle;rounded=0;orthogonalLoop=1;jettySize=auto;html=1;" edge="1" parent="1" source="ZyyuY-AvTD6qy36K2RAP-13" target="ZyyuY-AvTD6qy36K2RAP-9">
          <mxGeometry relative="1" as="geometry">
            <Array as="points">
              <mxPoint x="455" y="590" />
              <mxPoint x="560" y="590" />
            </Array>
          </mxGeometry>
        </mxCell>
        <mxCell id="ZyyuY-AvTD6qy36K2RAP-13" value="service" style="ellipse;shape=cloud;whiteSpace=wrap;html=1;fillColor=#d5e8d4;strokeColor=#82b366;" vertex="1" parent="1">
          <mxGeometry x="395" y="470" width="120" height="80" as="geometry" />
        </mxCell>
        <mxCell id="ZyyuY-AvTD6qy36K2RAP-14" style="edgeStyle=orthogonalEdgeStyle;rounded=0;orthogonalLoop=1;jettySize=auto;html=1;entryX=0.5;entryY=1;entryDx=0;entryDy=0;" edge="1" parent="1" source="ZyyuY-AvTD6qy36K2RAP-17" target="ZyyuY-AvTD6qy36K2RAP-20">
          <mxGeometry relative="1" as="geometry" />
        </mxCell>
        <mxCell id="ZyyuY-AvTD6qy36K2RAP-15" style="edgeStyle=orthogonalEdgeStyle;rounded=0;orthogonalLoop=1;jettySize=auto;html=1;entryX=0.5;entryY=1;entryDx=0;entryDy=0;" edge="1" parent="1" source="ZyyuY-AvTD6qy36K2RAP-17" target="ZyyuY-AvTD6qy36K2RAP-21">
          <mxGeometry relative="1" as="geometry" />
        </mxCell>
        <mxCell id="ZyyuY-AvTD6qy36K2RAP-16" style="edgeStyle=orthogonalEdgeStyle;rounded=0;orthogonalLoop=1;jettySize=auto;html=1;entryX=0.5;entryY=1;entryDx=0;entryDy=0;" edge="1" parent="1" source="ZyyuY-AvTD6qy36K2RAP-17" target="ZyyuY-AvTD6qy36K2RAP-22">
          <mxGeometry relative="1" as="geometry" />
        </mxCell>
        <mxCell id="ZyyuY-AvTD6qy36K2RAP-17" value="" style="rounded=0;whiteSpace=wrap;html=1;fillColor=#ffe6cc;strokeColor=#d79b00;" vertex="1" parent="1">
          <mxGeometry x="690" y="740" width="190" height="120" as="geometry" />
        </mxCell>
        <mxCell id="ZyyuY-AvTD6qy36K2RAP-18" value="replication controller" style="text;html=1;align=center;verticalAlign=middle;whiteSpace=wrap;rounded=0;" vertex="1" parent="1">
          <mxGeometry x="730" y="870" width="120" height="30" as="geometry" />
        </mxCell>
        <mxCell id="ZyyuY-AvTD6qy36K2RAP-19" value="&lt;font&gt;&lt;span style=&quot;box-sizing: border-box; text-wrap-style: initial; word-break: break-word; font-family: Consolas, Monaco, &amp;quot;Andale Mono&amp;quot;, &amp;quot;Ubuntu Mono&amp;quot;, monospace; white-space-collapse: preserve;&quot;&gt;&lt;span style=&quot;box-sizing: border-box; text-wrap-style: initial; word-break: break-word; color: rgb(0, 119, 170);&quot; class=&quot;token key&quot;&gt;template&lt;/span&gt;&lt;span style=&quot;box-sizing: border-box; text-wrap-style: initial; word-break: break-word; color: rgb(153, 153, 153);&quot; class=&quot;token&quot;&gt;:&lt;/span&gt;&lt;span style=&quot;box-sizing: border-box; text-wrap-style: initial; word-break: break-word;&quot;&gt;                 &lt;/span&gt;&lt;span style=&quot;box-sizing: border-box; text-wrap-style: initial; word-break: break-word;&quot;&gt;&lt;br&gt;&lt;/span&gt;&lt;/span&gt;&lt;span style=&quot;box-sizing: border-box; text-wrap-style: initial; word-break: break-word; font-family: Consolas, Monaco, &amp;quot;Andale Mono&amp;quot;, &amp;quot;Ubuntu Mono&amp;quot;, monospace; white-space-collapse: preserve;&quot;&gt;&lt;span style=&quot;box-sizing: border-box; text-wrap-style: initial; word-break: break-word;&quot;&gt;    &lt;/span&gt;&lt;span style=&quot;box-sizing: border-box; text-wrap-style: initial; word-break: break-word; color: rgb(0, 119, 170);&quot; class=&quot;token key&quot;&gt;metadata&lt;/span&gt;&lt;span style=&quot;box-sizing: border-box; text-wrap-style: initial; word-break: break-word; color: rgb(153, 153, 153);&quot; class=&quot;token&quot;&gt;:&lt;/span&gt;&lt;span style=&quot;box-sizing: border-box; text-wrap-style: initial; word-break: break-word;&quot;&gt;&lt;br&gt;&lt;/span&gt;&lt;/span&gt;&lt;span style=&quot;box-sizing: border-box; text-wrap-style: initial; word-break: break-word; font-family: Consolas, Monaco, &amp;quot;Andale Mono&amp;quot;, &amp;quot;Ubuntu Mono&amp;quot;, monospace; white-space-collapse: preserve;&quot;&gt;&lt;span style=&quot;box-sizing: border-box; text-wrap-style: initial; word-break: break-word;&quot;&gt;      &lt;/span&gt;&lt;span style=&quot;box-sizing: border-box; text-wrap-style: initial; word-break: break-word; color: rgb(0, 119, 170);&quot; data-spm-anchor-id=&quot;60902afd.2ef5001f.0.i4.655a3d33Okxrpd&quot; class=&quot;token key&quot;&gt;labels&lt;/span&gt;&lt;span style=&quot;box-sizing: border-box; text-wrap-style: initial; word-break: break-word; color: rgb(153, 153, 153);&quot; class=&quot;token&quot;&gt;:&lt;/span&gt;&lt;span style=&quot;box-sizing: border-box; text-wrap-style: initial; word-break: break-word;&quot;&gt;&lt;br&gt;&lt;/span&gt;&lt;/span&gt;&lt;span style=&quot;box-sizing: border-box; text-wrap-style: initial; word-break: break-word; font-family: Consolas, Monaco, &amp;quot;Andale Mono&amp;quot;, &amp;quot;Ubuntu Mono&amp;quot;, monospace; white-space-collapse: preserve;&quot;&gt;&lt;span style=&quot;box-sizing: border-box; text-wrap-style: initial; word-break: break-word;&quot;&gt;        &lt;/span&gt;&lt;span style=&quot;box-sizing: border-box; text-wrap-style: initial; word-break: break-word; color: rgb(0, 119, 170);&quot; class=&quot;token key&quot;&gt;app&lt;/span&gt;&lt;span style=&quot;box-sizing: border-box; text-wrap-style: initial; word-break: break-word; color: rgb(153, 153, 153);&quot; class=&quot;token&quot;&gt;:&lt;/span&gt;&lt;span style=&quot;box-sizing: border-box; text-wrap-style: initial; word-break: break-word;&quot;&gt; webapp2       &lt;/span&gt;&lt;span style=&quot;box-sizing: border-box; text-wrap-style: initial; word-break: break-word;&quot;&gt;&lt;br&gt;&lt;/span&gt;&lt;/span&gt;&lt;span style=&quot;box-sizing: border-box; text-wrap-style: initial; word-break: break-word; font-family: Consolas, Monaco, &amp;quot;Andale Mono&amp;quot;, &amp;quot;Ubuntu Mono&amp;quot;, monospace; white-space-collapse: preserve;&quot;&gt;&lt;span style=&quot;box-sizing: border-box; text-wrap-style: initial; word-break: break-word;&quot;&gt;    &lt;/span&gt;&lt;span style=&quot;box-sizing: border-box; text-wrap-style: initial; word-break: break-word; color: rgb(0, 119, 170);&quot; class=&quot;token key&quot;&gt;spec&lt;/span&gt;&lt;span style=&quot;box-sizing: border-box; text-wrap-style: initial; word-break: break-word; color: rgb(153, 153, 153);&quot; class=&quot;token&quot;&gt;:&lt;/span&gt;&lt;span style=&quot;box-sizing: border-box; text-wrap-style: initial; word-break: break-word;&quot;&gt;&lt;br&gt;&lt;/span&gt;&lt;/span&gt;&lt;span style=&quot;box-sizing: border-box; text-wrap-style: initial; word-break: break-word; font-family: Consolas, Monaco, &amp;quot;Andale Mono&amp;quot;, &amp;quot;Ubuntu Mono&amp;quot;, monospace; white-space-collapse: preserve;&quot;&gt;&lt;span style=&quot;box-sizing: border-box; text-wrap-style: initial; word-break: break-word;&quot;&gt;      &lt;/span&gt;&lt;span style=&quot;box-sizing: border-box; text-wrap-style: initial; word-break: break-word; color: rgb(0, 119, 170);&quot; class=&quot;token key&quot;&gt;containers&lt;/span&gt;&lt;span style=&quot;box-sizing: border-box; text-wrap-style: initial; word-break: break-word; color: rgb(153, 153, 153);&quot; class=&quot;token&quot;&gt;:&lt;/span&gt;&lt;/span&gt;&lt;span style=&quot;box-sizing: border-box; text-wrap-style: initial; word-break: break-word; font-family: Consolas, Monaco, &amp;quot;Andale Mono&amp;quot;, &amp;quot;Ubuntu Mono&amp;quot;, monospace; white-space-collapse: preserve;&quot;&gt;&lt;span style=&quot;box-sizing: border-box; text-wrap-style: initial; word-break: break-word;&quot;&gt;&lt;br&gt;&lt;div style=&quot;&quot;&gt;&lt;span style=&quot;color: light-dark(rgb(0, 0, 0), rgb(255, 255, 255)); box-sizing: border-box; text-wrap-style: initial; word-break: break-word;&quot;&gt;          &lt;/span&gt;&lt;span style=&quot;box-sizing: border-box; text-wrap-style: initial; word-break: break-word; color: rgb(0, 119, 170);&quot; class=&quot;token key&quot;&gt;image&lt;/span&gt;&lt;span style=&quot;box-sizing: border-box; text-wrap-style: initial; word-break: break-word; color: rgb(153, 153, 153);&quot; class=&quot;token&quot;&gt;:&lt;/span&gt;&lt;span style=&quot;color: light-dark(rgb(0, 0, 0), rgb(255, 255, 255)); box-sizing: border-box; text-wrap-style: initial; word-break: break-word;&quot;&gt; nginx&lt;/span&gt;&lt;span style=&quot;box-sizing: border-box; text-wrap-style: initial; word-break: break-word; color: rgb(153, 153, 153);&quot; class=&quot;token&quot;&gt;:&lt;/span&gt;&lt;span style=&quot;color: light-dark(rgb(0, 0, 0), rgb(255, 255, 255)); box-sizing: border-box; text-wrap-style: initial; word-break: break-word;&quot;&gt;V2&lt;/span&gt;&lt;/div&gt;&lt;/span&gt;&lt;/span&gt;&lt;/font&gt;" style="text;html=1;align=left;verticalAlign=middle;whiteSpace=wrap;rounded=0;" vertex="1" parent="1">
          <mxGeometry x="690" y="745" width="190" height="115" as="geometry" />
        </mxCell>
        <mxCell id="ZyyuY-AvTD6qy36K2RAP-20" value="Pod:nginx:V2" style="rounded=1;whiteSpace=wrap;html=1;fillColor=#dae8fc;strokeColor=#6c8ebf;" vertex="1" parent="1">
          <mxGeometry x="650" y="630" width="80" height="50" as="geometry" />
        </mxCell>
        <mxCell id="ZyyuY-AvTD6qy36K2RAP-21" value="Pod:nginx:V2" style="rounded=1;whiteSpace=wrap;html=1;fillColor=#dae8fc;strokeColor=#6c8ebf;" vertex="1" parent="1">
          <mxGeometry x="745" y="630" width="80" height="50" as="geometry" />
        </mxCell>
        <mxCell id="ZyyuY-AvTD6qy36K2RAP-22" value="Pod:nginx:V2" style="rounded=1;whiteSpace=wrap;html=1;fillColor=#dae8fc;strokeColor=#6c8ebf;" vertex="1" parent="1">
          <mxGeometry x="840" y="630" width="80" height="50" as="geometry" />
        </mxCell>
        <mxCell id="ZyyuY-AvTD6qy36K2RAP-23" style="edgeStyle=orthogonalEdgeStyle;rounded=0;orthogonalLoop=1;jettySize=auto;html=1;entryX=0.5;entryY=1;entryDx=0;entryDy=0;" edge="1" parent="1" source="ZyyuY-AvTD6qy36K2RAP-26" target="ZyyuY-AvTD6qy36K2RAP-29">
          <mxGeometry relative="1" as="geometry" />
        </mxCell>
        <mxCell id="ZyyuY-AvTD6qy36K2RAP-24" style="edgeStyle=orthogonalEdgeStyle;rounded=0;orthogonalLoop=1;jettySize=auto;html=1;entryX=0.5;entryY=1;entryDx=0;entryDy=0;" edge="1" parent="1" source="ZyyuY-AvTD6qy36K2RAP-26" target="ZyyuY-AvTD6qy36K2RAP-30">
          <mxGeometry relative="1" as="geometry" />
        </mxCell>
        <mxCell id="ZyyuY-AvTD6qy36K2RAP-25" style="edgeStyle=orthogonalEdgeStyle;rounded=0;orthogonalLoop=1;jettySize=auto;html=1;entryX=0.5;entryY=1;entryDx=0;entryDy=0;" edge="1" parent="1" source="ZyyuY-AvTD6qy36K2RAP-26" target="ZyyuY-AvTD6qy36K2RAP-31">
          <mxGeometry relative="1" as="geometry" />
        </mxCell>
        <mxCell id="ZyyuY-AvTD6qy36K2RAP-26" value="" style="rounded=0;whiteSpace=wrap;html=1;fillColor=#ffe6cc;strokeColor=#d79b00;" vertex="1" parent="1">
          <mxGeometry x="1030" y="740" width="190" height="120" as="geometry" />
        </mxCell>
        <mxCell id="ZyyuY-AvTD6qy36K2RAP-27" value="replication controller" style="text;html=1;align=center;verticalAlign=middle;whiteSpace=wrap;rounded=0;" vertex="1" parent="1">
          <mxGeometry x="1060" y="870" width="120" height="30" as="geometry" />
        </mxCell>
        <mxCell id="ZyyuY-AvTD6qy36K2RAP-28" value="&lt;font&gt;&lt;span style=&quot;box-sizing: border-box; text-wrap-style: initial; word-break: break-word; font-family: Consolas, Monaco, &amp;quot;Andale Mono&amp;quot;, &amp;quot;Ubuntu Mono&amp;quot;, monospace; white-space-collapse: preserve;&quot;&gt;&lt;span style=&quot;box-sizing: border-box; text-wrap-style: initial; word-break: break-word; color: rgb(0, 119, 170);&quot; class=&quot;token key&quot;&gt;template&lt;/span&gt;&lt;span style=&quot;box-sizing: border-box; text-wrap-style: initial; word-break: break-word; color: rgb(153, 153, 153);&quot; class=&quot;token&quot;&gt;:&lt;/span&gt;&lt;span style=&quot;box-sizing: border-box; text-wrap-style: initial; word-break: break-word;&quot;&gt;                 &lt;/span&gt;&lt;span style=&quot;box-sizing: border-box; text-wrap-style: initial; word-break: break-word;&quot;&gt;&lt;br&gt;&lt;/span&gt;&lt;/span&gt;&lt;span style=&quot;box-sizing: border-box; text-wrap-style: initial; word-break: break-word; font-family: Consolas, Monaco, &amp;quot;Andale Mono&amp;quot;, &amp;quot;Ubuntu Mono&amp;quot;, monospace; white-space-collapse: preserve;&quot;&gt;&lt;span style=&quot;box-sizing: border-box; text-wrap-style: initial; word-break: break-word;&quot;&gt;    &lt;/span&gt;&lt;span style=&quot;box-sizing: border-box; text-wrap-style: initial; word-break: break-word; color: rgb(0, 119, 170);&quot; class=&quot;token key&quot;&gt;metadata&lt;/span&gt;&lt;span style=&quot;box-sizing: border-box; text-wrap-style: initial; word-break: break-word; color: rgb(153, 153, 153);&quot; class=&quot;token&quot;&gt;:&lt;/span&gt;&lt;span style=&quot;box-sizing: border-box; text-wrap-style: initial; word-break: break-word;&quot;&gt;&lt;br&gt;&lt;/span&gt;&lt;/span&gt;&lt;span style=&quot;box-sizing: border-box; text-wrap-style: initial; word-break: break-word; font-family: Consolas, Monaco, &amp;quot;Andale Mono&amp;quot;, &amp;quot;Ubuntu Mono&amp;quot;, monospace; white-space-collapse: preserve;&quot;&gt;&lt;span style=&quot;box-sizing: border-box; text-wrap-style: initial; word-break: break-word;&quot;&gt;      &lt;/span&gt;&lt;span style=&quot;box-sizing: border-box; text-wrap-style: initial; word-break: break-word; color: rgb(0, 119, 170);&quot; data-spm-anchor-id=&quot;60902afd.2ef5001f.0.i4.655a3d33Okxrpd&quot; class=&quot;token key&quot;&gt;labels&lt;/span&gt;&lt;span style=&quot;box-sizing: border-box; text-wrap-style: initial; word-break: break-word; color: rgb(153, 153, 153);&quot; class=&quot;token&quot;&gt;:&lt;/span&gt;&lt;span style=&quot;box-sizing: border-box; text-wrap-style: initial; word-break: break-word;&quot;&gt;&lt;br&gt;&lt;/span&gt;&lt;/span&gt;&lt;span style=&quot;box-sizing: border-box; text-wrap-style: initial; word-break: break-word; font-family: Consolas, Monaco, &amp;quot;Andale Mono&amp;quot;, &amp;quot;Ubuntu Mono&amp;quot;, monospace; white-space-collapse: preserve;&quot;&gt;&lt;span style=&quot;box-sizing: border-box; text-wrap-style: initial; word-break: break-word;&quot;&gt;        &lt;/span&gt;&lt;span style=&quot;box-sizing: border-box; text-wrap-style: initial; word-break: break-word; color: rgb(0, 119, 170);&quot; class=&quot;token key&quot;&gt;app&lt;/span&gt;&lt;span style=&quot;box-sizing: border-box; text-wrap-style: initial; word-break: break-word; color: rgb(153, 153, 153);&quot; class=&quot;token&quot;&gt;:&lt;/span&gt;&lt;span style=&quot;box-sizing: border-box; text-wrap-style: initial; word-break: break-word;&quot;&gt; webapp2       &lt;/span&gt;&lt;span style=&quot;box-sizing: border-box; text-wrap-style: initial; word-break: break-word;&quot;&gt;&lt;br&gt;&lt;/span&gt;&lt;/span&gt;&lt;span style=&quot;box-sizing: border-box; text-wrap-style: initial; word-break: break-word; font-family: Consolas, Monaco, &amp;quot;Andale Mono&amp;quot;, &amp;quot;Ubuntu Mono&amp;quot;, monospace; white-space-collapse: preserve;&quot;&gt;&lt;span style=&quot;box-sizing: border-box; text-wrap-style: initial; word-break: break-word;&quot;&gt;    &lt;/span&gt;&lt;span style=&quot;box-sizing: border-box; text-wrap-style: initial; word-break: break-word; color: rgb(0, 119, 170);&quot; class=&quot;token key&quot;&gt;spec&lt;/span&gt;&lt;span style=&quot;box-sizing: border-box; text-wrap-style: initial; word-break: break-word; color: rgb(153, 153, 153);&quot; class=&quot;token&quot;&gt;:&lt;/span&gt;&lt;span style=&quot;box-sizing: border-box; text-wrap-style: initial; word-break: break-word;&quot;&gt;&lt;br&gt;&lt;/span&gt;&lt;/span&gt;&lt;span style=&quot;box-sizing: border-box; text-wrap-style: initial; word-break: break-word; font-family: Consolas, Monaco, &amp;quot;Andale Mono&amp;quot;, &amp;quot;Ubuntu Mono&amp;quot;, monospace; white-space-collapse: preserve;&quot;&gt;&lt;span style=&quot;box-sizing: border-box; text-wrap-style: initial; word-break: break-word;&quot;&gt;      &lt;/span&gt;&lt;span style=&quot;box-sizing: border-box; text-wrap-style: initial; word-break: break-word; color: rgb(0, 119, 170);&quot; class=&quot;token key&quot;&gt;containers&lt;/span&gt;&lt;span style=&quot;box-sizing: border-box; text-wrap-style: initial; word-break: break-word; color: rgb(153, 153, 153);&quot; class=&quot;token&quot;&gt;:&lt;/span&gt;&lt;/span&gt;&lt;span style=&quot;box-sizing: border-box; text-wrap-style: initial; word-break: break-word; font-family: Consolas, Monaco, &amp;quot;Andale Mono&amp;quot;, &amp;quot;Ubuntu Mono&amp;quot;, monospace; white-space-collapse: preserve;&quot;&gt;&lt;span style=&quot;box-sizing: border-box; text-wrap-style: initial; word-break: break-word;&quot;&gt;&lt;br&gt;&lt;div style=&quot;&quot;&gt;&lt;span style=&quot;color: light-dark(rgb(0, 0, 0), rgb(255, 255, 255)); box-sizing: border-box; text-wrap-style: initial; word-break: break-word;&quot;&gt;          &lt;/span&gt;&lt;span style=&quot;box-sizing: border-box; text-wrap-style: initial; word-break: break-word; color: rgb(0, 119, 170);&quot; class=&quot;token key&quot;&gt;image&lt;/span&gt;&lt;span style=&quot;box-sizing: border-box; text-wrap-style: initial; word-break: break-word; color: rgb(153, 153, 153);&quot; class=&quot;token&quot;&gt;:&lt;/span&gt;&lt;span style=&quot;color: light-dark(rgb(0, 0, 0), rgb(255, 255, 255)); box-sizing: border-box; text-wrap-style: initial; word-break: break-word;&quot;&gt; nginx&lt;/span&gt;&lt;span style=&quot;box-sizing: border-box; text-wrap-style: initial; word-break: break-word; color: rgb(153, 153, 153);&quot; class=&quot;token&quot;&gt;:&lt;/span&gt;&lt;span style=&quot;color: light-dark(rgb(0, 0, 0), rgb(255, 255, 255)); box-sizing: border-box; text-wrap-style: initial; word-break: break-word;&quot;&gt;V2&lt;/span&gt;&lt;/div&gt;&lt;/span&gt;&lt;/span&gt;&lt;/font&gt;" style="text;html=1;align=left;verticalAlign=middle;whiteSpace=wrap;rounded=0;" vertex="1" parent="1">
          <mxGeometry x="1030" y="745" width="190" height="115" as="geometry" />
        </mxCell>
        <mxCell id="ZyyuY-AvTD6qy36K2RAP-29" value="Pod:nginx:V2" style="rounded=1;whiteSpace=wrap;html=1;fillColor=#dae8fc;strokeColor=#6c8ebf;" vertex="1" parent="1">
          <mxGeometry x="990" y="630" width="80" height="50" as="geometry" />
        </mxCell>
        <mxCell id="ZyyuY-AvTD6qy36K2RAP-30" value="Pod:nginx:V2" style="rounded=1;whiteSpace=wrap;html=1;fillColor=#dae8fc;strokeColor=#6c8ebf;" vertex="1" parent="1">
          <mxGeometry x="1085" y="630" width="80" height="50" as="geometry" />
        </mxCell>
        <mxCell id="ZyyuY-AvTD6qy36K2RAP-31" value="Pod:nginx:V2" style="rounded=1;whiteSpace=wrap;html=1;fillColor=#dae8fc;strokeColor=#6c8ebf;" vertex="1" parent="1">
          <mxGeometry x="1180" y="630" width="80" height="50" as="geometry" />
        </mxCell>
        <mxCell id="ZyyuY-AvTD6qy36K2RAP-32" style="edgeStyle=orthogonalEdgeStyle;rounded=0;orthogonalLoop=1;jettySize=auto;html=1;entryX=0.5;entryY=0;entryDx=0;entryDy=0;" edge="1" parent="1" source="ZyyuY-AvTD6qy36K2RAP-35" target="ZyyuY-AvTD6qy36K2RAP-29">
          <mxGeometry relative="1" as="geometry" />
        </mxCell>
        <mxCell id="ZyyuY-AvTD6qy36K2RAP-33" style="edgeStyle=orthogonalEdgeStyle;rounded=0;orthogonalLoop=1;jettySize=auto;html=1;entryX=0.5;entryY=0;entryDx=0;entryDy=0;" edge="1" parent="1" source="ZyyuY-AvTD6qy36K2RAP-35" target="ZyyuY-AvTD6qy36K2RAP-30">
          <mxGeometry relative="1" as="geometry" />
        </mxCell>
        <mxCell id="ZyyuY-AvTD6qy36K2RAP-34" style="edgeStyle=orthogonalEdgeStyle;rounded=0;orthogonalLoop=1;jettySize=auto;html=1;" edge="1" parent="1" source="ZyyuY-AvTD6qy36K2RAP-35" target="ZyyuY-AvTD6qy36K2RAP-31">
          <mxGeometry relative="1" as="geometry">
            <Array as="points">
              <mxPoint x="1125" y="590" />
              <mxPoint x="1230" y="590" />
            </Array>
          </mxGeometry>
        </mxCell>
        <mxCell id="ZyyuY-AvTD6qy36K2RAP-35" value="service" style="ellipse;shape=cloud;whiteSpace=wrap;html=1;fillColor=#d5e8d4;strokeColor=#82b366;" vertex="1" parent="1">
          <mxGeometry x="1065" y="470" width="120" height="80" as="geometry" />
        </mxCell>
        <mxCell id="ZyyuY-AvTD6qy36K2RAP-36" style="edgeStyle=orthogonalEdgeStyle;rounded=0;orthogonalLoop=1;jettySize=auto;html=1;entryX=0.5;entryY=1;entryDx=0;entryDy=0;" edge="1" parent="1" source="ZyyuY-AvTD6qy36K2RAP-39" target="ZyyuY-AvTD6qy36K2RAP-42">
          <mxGeometry relative="1" as="geometry" />
        </mxCell>
        <mxCell id="ZyyuY-AvTD6qy36K2RAP-37" style="edgeStyle=orthogonalEdgeStyle;rounded=0;orthogonalLoop=1;jettySize=auto;html=1;entryX=0.5;entryY=1;entryDx=0;entryDy=0;" edge="1" parent="1" source="ZyyuY-AvTD6qy36K2RAP-39" target="ZyyuY-AvTD6qy36K2RAP-43">
          <mxGeometry relative="1" as="geometry" />
        </mxCell>
        <mxCell id="ZyyuY-AvTD6qy36K2RAP-38" style="edgeStyle=orthogonalEdgeStyle;rounded=0;orthogonalLoop=1;jettySize=auto;html=1;entryX=0.5;entryY=1;entryDx=0;entryDy=0;" edge="1" parent="1" source="ZyyuY-AvTD6qy36K2RAP-39" target="ZyyuY-AvTD6qy36K2RAP-44">
          <mxGeometry relative="1" as="geometry" />
        </mxCell>
        <mxCell id="ZyyuY-AvTD6qy36K2RAP-39" value="" style="rounded=0;whiteSpace=wrap;html=1;fillColor=#ffe6cc;strokeColor=#d79b00;" vertex="1" parent="1">
          <mxGeometry x="1390" y="740" width="190" height="120" as="geometry" />
        </mxCell>
        <mxCell id="ZyyuY-AvTD6qy36K2RAP-40" value="replication controller" style="text;html=1;align=center;verticalAlign=middle;whiteSpace=wrap;rounded=0;" vertex="1" parent="1">
          <mxGeometry x="1420" y="870" width="120" height="30" as="geometry" />
        </mxCell>
        <mxCell id="ZyyuY-AvTD6qy36K2RAP-41" value="&lt;font&gt;&lt;span style=&quot;box-sizing: border-box; text-wrap-style: initial; word-break: break-word; font-family: Consolas, Monaco, &amp;quot;Andale Mono&amp;quot;, &amp;quot;Ubuntu Mono&amp;quot;, monospace; white-space-collapse: preserve;&quot;&gt;&lt;span style=&quot;box-sizing: border-box; text-wrap-style: initial; word-break: break-word; color: rgb(0, 119, 170);&quot; class=&quot;token key&quot;&gt;template&lt;/span&gt;&lt;span style=&quot;box-sizing: border-box; text-wrap-style: initial; word-break: break-word; color: rgb(153, 153, 153);&quot; class=&quot;token&quot;&gt;:&lt;/span&gt;&lt;span style=&quot;box-sizing: border-box; text-wrap-style: initial; word-break: break-word;&quot;&gt;                 &lt;/span&gt;&lt;span style=&quot;box-sizing: border-box; text-wrap-style: initial; word-break: break-word;&quot;&gt;&lt;br&gt;&lt;/span&gt;&lt;/span&gt;&lt;span style=&quot;box-sizing: border-box; text-wrap-style: initial; word-break: break-word; font-family: Consolas, Monaco, &amp;quot;Andale Mono&amp;quot;, &amp;quot;Ubuntu Mono&amp;quot;, monospace; white-space-collapse: preserve;&quot;&gt;&lt;span style=&quot;box-sizing: border-box; text-wrap-style: initial; word-break: break-word;&quot;&gt;    &lt;/span&gt;&lt;span style=&quot;box-sizing: border-box; text-wrap-style: initial; word-break: break-word; color: rgb(0, 119, 170);&quot; class=&quot;token key&quot;&gt;metadata&lt;/span&gt;&lt;span style=&quot;box-sizing: border-box; text-wrap-style: initial; word-break: break-word; color: rgb(153, 153, 153);&quot; class=&quot;token&quot;&gt;:&lt;/span&gt;&lt;span style=&quot;box-sizing: border-box; text-wrap-style: initial; word-break: break-word;&quot;&gt;&lt;br&gt;&lt;/span&gt;&lt;/span&gt;&lt;span style=&quot;box-sizing: border-box; text-wrap-style: initial; word-break: break-word; font-family: Consolas, Monaco, &amp;quot;Andale Mono&amp;quot;, &amp;quot;Ubuntu Mono&amp;quot;, monospace; white-space-collapse: preserve;&quot;&gt;&lt;span style=&quot;box-sizing: border-box; text-wrap-style: initial; word-break: break-word;&quot;&gt;      &lt;/span&gt;&lt;span style=&quot;box-sizing: border-box; text-wrap-style: initial; word-break: break-word; color: rgb(0, 119, 170);&quot; data-spm-anchor-id=&quot;60902afd.2ef5001f.0.i4.655a3d33Okxrpd&quot; class=&quot;token key&quot;&gt;labels&lt;/span&gt;&lt;span style=&quot;box-sizing: border-box; text-wrap-style: initial; word-break: break-word; color: rgb(153, 153, 153);&quot; class=&quot;token&quot;&gt;:&lt;/span&gt;&lt;span style=&quot;box-sizing: border-box; text-wrap-style: initial; word-break: break-word;&quot;&gt;&lt;br&gt;&lt;/span&gt;&lt;/span&gt;&lt;span style=&quot;box-sizing: border-box; text-wrap-style: initial; word-break: break-word; font-family: Consolas, Monaco, &amp;quot;Andale Mono&amp;quot;, &amp;quot;Ubuntu Mono&amp;quot;, monospace; white-space-collapse: preserve;&quot;&gt;&lt;span style=&quot;box-sizing: border-box; text-wrap-style: initial; word-break: break-word;&quot;&gt;        &lt;/span&gt;&lt;span style=&quot;box-sizing: border-box; text-wrap-style: initial; word-break: break-word; color: rgb(0, 119, 170);&quot; class=&quot;token key&quot;&gt;app&lt;/span&gt;&lt;span style=&quot;box-sizing: border-box; text-wrap-style: initial; word-break: break-word; color: rgb(153, 153, 153);&quot; class=&quot;token&quot;&gt;:&lt;/span&gt;&lt;span style=&quot;box-sizing: border-box; text-wrap-style: initial; word-break: break-word;&quot;&gt; webapp1       &lt;/span&gt;&lt;span style=&quot;box-sizing: border-box; text-wrap-style: initial; word-break: break-word;&quot;&gt;&lt;br&gt;&lt;/span&gt;&lt;/span&gt;&lt;span style=&quot;box-sizing: border-box; text-wrap-style: initial; word-break: break-word; font-family: Consolas, Monaco, &amp;quot;Andale Mono&amp;quot;, &amp;quot;Ubuntu Mono&amp;quot;, monospace; white-space-collapse: preserve;&quot;&gt;&lt;span style=&quot;box-sizing: border-box; text-wrap-style: initial; word-break: break-word;&quot;&gt;    &lt;/span&gt;&lt;span style=&quot;box-sizing: border-box; text-wrap-style: initial; word-break: break-word; color: rgb(0, 119, 170);&quot; class=&quot;token key&quot;&gt;spec&lt;/span&gt;&lt;span style=&quot;box-sizing: border-box; text-wrap-style: initial; word-break: break-word; color: rgb(153, 153, 153);&quot; class=&quot;token&quot;&gt;:&lt;/span&gt;&lt;span style=&quot;box-sizing: border-box; text-wrap-style: initial; word-break: break-word;&quot;&gt;&lt;br&gt;&lt;/span&gt;&lt;/span&gt;&lt;span style=&quot;box-sizing: border-box; text-wrap-style: initial; word-break: break-word; font-family: Consolas, Monaco, &amp;quot;Andale Mono&amp;quot;, &amp;quot;Ubuntu Mono&amp;quot;, monospace; white-space-collapse: preserve;&quot;&gt;&lt;span style=&quot;box-sizing: border-box; text-wrap-style: initial; word-break: break-word;&quot;&gt;      &lt;/span&gt;&lt;span style=&quot;box-sizing: border-box; text-wrap-style: initial; word-break: break-word; color: rgb(0, 119, 170);&quot; class=&quot;token key&quot;&gt;containers&lt;/span&gt;&lt;span style=&quot;box-sizing: border-box; text-wrap-style: initial; word-break: break-word; color: rgb(153, 153, 153);&quot; class=&quot;token&quot;&gt;:&lt;/span&gt;&lt;/span&gt;&lt;span style=&quot;box-sizing: border-box; text-wrap-style: initial; word-break: break-word; font-family: Consolas, Monaco, &amp;quot;Andale Mono&amp;quot;, &amp;quot;Ubuntu Mono&amp;quot;, monospace; white-space-collapse: preserve;&quot;&gt;&lt;span style=&quot;box-sizing: border-box; text-wrap-style: initial; word-break: break-word;&quot;&gt;&lt;br&gt;&lt;div style=&quot;&quot;&gt;&lt;span style=&quot;color: light-dark(rgb(0, 0, 0), rgb(255, 255, 255)); box-sizing: border-box; text-wrap-style: initial; word-break: break-word;&quot;&gt;          &lt;/span&gt;&lt;span style=&quot;box-sizing: border-box; text-wrap-style: initial; word-break: break-word; color: rgb(0, 119, 170);&quot; class=&quot;token key&quot;&gt;image&lt;/span&gt;&lt;span style=&quot;box-sizing: border-box; text-wrap-style: initial; word-break: break-word; color: rgb(153, 153, 153);&quot; class=&quot;token&quot;&gt;:&lt;/span&gt;&lt;span style=&quot;color: light-dark(rgb(0, 0, 0), rgb(255, 255, 255)); box-sizing: border-box; text-wrap-style: initial; word-break: break-word;&quot;&gt; nginx&lt;/span&gt;&lt;span style=&quot;box-sizing: border-box; text-wrap-style: initial; word-break: break-word; color: rgb(153, 153, 153);&quot; class=&quot;token&quot;&gt;:&lt;/span&gt;&lt;span style=&quot;color: light-dark(rgb(0, 0, 0), rgb(255, 255, 255)); box-sizing: border-box; text-wrap-style: initial; word-break: break-word;&quot;&gt;V1&lt;/span&gt;&lt;/div&gt;&lt;/span&gt;&lt;/span&gt;&lt;/font&gt;" style="text;html=1;align=left;verticalAlign=middle;whiteSpace=wrap;rounded=0;" vertex="1" parent="1">
          <mxGeometry x="1390" y="745" width="190" height="115" as="geometry" />
        </mxCell>
        <mxCell id="ZyyuY-AvTD6qy36K2RAP-42" value="Pod:nginx:V1" style="rounded=1;whiteSpace=wrap;html=1;fillColor=#647687;strokeColor=#314354;fontColor=#ffffff;" vertex="1" parent="1">
          <mxGeometry x="1350" y="630" width="80" height="50" as="geometry" />
        </mxCell>
        <mxCell id="ZyyuY-AvTD6qy36K2RAP-43" value="Pod:nginx:V1" style="rounded=1;whiteSpace=wrap;html=1;fillColor=#647687;strokeColor=#314354;fontColor=#ffffff;" vertex="1" parent="1">
          <mxGeometry x="1445" y="630" width="80" height="50" as="geometry" />
        </mxCell>
        <mxCell id="ZyyuY-AvTD6qy36K2RAP-44" value="Pod:nginx:V1" style="rounded=1;whiteSpace=wrap;html=1;fillColor=#647687;strokeColor=#314354;fontColor=#ffffff;" vertex="1" parent="1">
          <mxGeometry x="1545" y="630" width="80" height="50" as="geometry" />
        </mxCell>
        <mxCell id="ZyyuY-AvTD6qy36K2RAP-49" value="" style="html=1;shadow=0;dashed=0;align=center;verticalAlign=middle;shape=mxgraph.arrows2.uTurnArrow;dy=5.26;arrowHead=28;dx2=25;direction=south;" vertex="1" parent="1">
          <mxGeometry x="540" y="410" width="180" height="20" as="geometry" />
        </mxCell>
        <mxCell id="ZyyuY-AvTD6qy36K2RAP-50" value="1、修改rc的yaml，修改镜像文件和选择器标签" style="text;html=1;align=center;verticalAlign=middle;whiteSpace=wrap;rounded=0;" vertex="1" parent="1">
          <mxGeometry x="540" y="360" width="155" height="30" as="geometry" />
        </mxCell>
        <mxCell id="ZyyuY-AvTD6qy36K2RAP-51" value="" style="html=1;shadow=0;dashed=0;align=center;verticalAlign=middle;shape=mxgraph.arrows2.uTurnArrow;dy=5.26;arrowHead=28;dx2=25;direction=south;" vertex="1" parent="1">
          <mxGeometry x="870" y="410" width="180" height="20" as="geometry" />
        </mxCell>
        <mxCell id="ZyyuY-AvTD6qy36K2RAP-52" value="2、service指向新的标签" style="text;html=1;align=center;verticalAlign=middle;whiteSpace=wrap;rounded=0;" vertex="1" parent="1">
          <mxGeometry x="870" y="360" width="155" height="30" as="geometry" />
        </mxCell>
        <mxCell id="ZyyuY-AvTD6qy36K2RAP-53" value="" style="html=1;shadow=0;dashed=0;align=center;verticalAlign=middle;shape=mxgraph.arrows2.uTurnArrow;dy=5.26;arrowHead=28;dx2=25;direction=south;" vertex="1" parent="1">
          <mxGeometry x="1195" y="410" width="180" height="20" as="geometry" />
        </mxCell>
        <mxCell id="ZyyuY-AvTD6qy36K2RAP-54" value="3、删除旧的pod" style="text;html=1;align=center;verticalAlign=middle;whiteSpace=wrap;rounded=0;" vertex="1" parent="1">
          <mxGeometry x="1195" y="360" width="155" height="30" as="geometry" />
        </mxCell>
      </root>
    </mxGraphModel>
  </diagram>
</mxfile>
